<svg width="31" height="52" viewBox="0 0 31 52" fill="none" xmlns="http://www.w3.org/2000/svg">
<path d="M14.6401 0.755198C15.0491 0.371042 15.5674 0.123458 16.1234 0.0467384C16.6793 -0.0299808 17.2453 0.0679605 17.743 0.326997C18.2486 0.597248 18.6615 1.0118 18.9274 1.52052L20.5758 4.8936C20.9959 5.7381 21.6066 6.4734 22.3599 7.04143C23.1131 7.60947 23.9882 7.99469 24.9161 8.16667L28.6624 8.8216C29.2192 8.93884 29.7251 9.22772 30.1088 9.64754C30.4925 10.0674 30.7348 10.5969 30.8014 11.1617C30.868 11.7264 30.7556 12.2978 30.4801 12.7954C30.2045 13.293 29.7797 13.6917 29.2655 13.9352L25.8853 15.5865C25.0397 16.0062 24.3033 16.6166 23.7343 17.3696C23.1653 18.1225 22.7794 18.9974 22.6069 19.925L21.9447 23.6622C21.8312 24.2151 21.5481 24.7188 21.1348 25.1034C20.7215 25.488 20.1986 25.7343 19.6387 25.8081C19.0789 25.8819 18.51 25.7794 18.0112 25.515C17.5124 25.2506 17.1085 24.8374 16.8556 24.3328L15.1717 20.8939C14.755 20.0732 14.1574 19.3578 13.424 18.8015C12.6905 18.2452 11.8403 17.8624 10.9373 17.6821L7.1946 17.0345C6.64162 16.9207 6.13783 16.6377 5.75318 16.2247C5.36853 15.8117 5.1221 15.2893 5.04811 14.7299C4.97411 14.1705 5.07622 13.602 5.34027 13.1032C5.60431 12.6044 6.01718 12.2001 6.52156 11.9464L9.90028 10.3033C10.7503 9.88228 11.4896 9.26782 12.0588 8.50931C12.6279 7.75079 13.011 6.8694 13.1773 5.93603L13.8384 2.19111C13.9501 1.63982 14.2316 1.13817 14.6401 0.755198Z" fill="#9547A5"/>
<path d="M5.34692 38.8853C5.55226 38.6924 5.81253 38.5681 6.09168 38.5296C6.37083 38.4911 6.65505 38.5402 6.90496 38.6703C7.15884 38.806 7.36618 39.0142 7.4997 39.2696L8.3274 40.9633C8.53831 41.3874 8.84499 41.7566 9.22322 42.0418C9.60145 42.3271 10.0409 42.5205 10.5068 42.6069L12.3879 42.9357C12.6675 42.9946 12.9215 43.1396 13.1142 43.3504C13.3069 43.5612 13.4285 43.8272 13.462 44.1107C13.4954 44.3943 13.439 44.6812 13.3006 44.9311C13.1623 45.1809 12.949 45.3811 12.6908 45.5034L10.9935 46.3326C10.5688 46.5433 10.1991 46.8498 9.91338 47.2279C9.62768 47.606 9.43387 48.0453 9.34727 48.5111L9.01475 50.3877C8.95775 50.6653 8.8156 50.9182 8.60807 51.1113C8.40055 51.3044 8.13796 51.4281 7.85685 51.4652C7.57574 51.5022 7.29008 51.4508 7.03962 51.318C6.78915 51.1852 6.58634 50.9777 6.45938 50.7244L5.61384 48.9976C5.40459 48.5855 5.10452 48.2263 4.73623 47.9469C4.36793 47.6676 3.94101 47.4754 3.4876 47.3848L1.60827 47.0597C1.3306 47.0025 1.07764 46.8604 0.884491 46.653C0.691345 46.4457 0.567606 46.1833 0.530451 45.9025C0.493296 45.6216 0.54457 45.3361 0.677153 45.0856C0.809737 44.8352 1.01705 44.6322 1.27032 44.5048L2.96688 43.6797C3.39369 43.4683 3.76493 43.1598 4.05072 42.7789C4.33651 42.398 4.52888 41.9555 4.61235 41.4868L4.94433 39.6063C5.00041 39.3295 5.14177 39.0776 5.34692 38.8853Z" fill="#9547A5"/>
</svg>
